ffmpeg started on 2025-06-05 at 20:10:14
Report written to "D:\Convert\FFMetrics\reports\ssim_report-6.txt"
Log level: 32
Command line:
ffmpeg -hide_banner -nostdin -i "G:\\\xc0\xed\xe8\xec\xe5\\\xce\xed\xe3\xee\xe8\xed\xe3\xe8\\!_36_\xce\xf1\xe5\xed\xfc_2024\\DreamCast\\\xcd\xe5\xe3\xe0\xf2\xe8\xe2\xed\xfb\xe9 \xef\xee\xe7\xe8\xf2\xe8\xe2\xed\xfb\xe9 \xf0\xfb\xe1\xe0\xea\\[DC] NegaPosi Angler - 02_Telegram_HEVC.mkv" -i "G:\\\xc0\xed\xe8\xec\xe5\\\xce\xed\xe3\xee\xe8\xed\xe3\xe8\\!_36_\xce\xf1\xe5\xed\xfc_2024\\DreamCast\\\xcd\xe5\xe3\xe0\xf2\xe8\xe2\xed\xfb\xe9 \xef\xee\xe7\xe8\xf2\xe8\xe2\xed\xfb\xe9 \xf0\xfb\xe1\xe0\xea\\[DC] NegaPosi Angler - 02_Telegram.mp4" -lavfi "[0:v]settb=AVTB,setpts=PTS-STARTPTS,format=pix_fmts=yuv420p10,fps=24000/1001,scale=1920:1080:flags=bicubic[main];[1:v]settb=AVTB,setpts=PTS-STARTPTS,format=pix_fmts=yuv420p,fps=24000/1001,scale=1920:1080:flags=bicubic[ref];[main][ref]ssim=eof_action=endall:stats_file='D\\:/Convert/FFMetrics/logs/ssim_logfile-6.txt'" -f null -
Input #0, matroska,webm, from 'G:\Аниме\Онгоинги\!_36_Осень_2024\DreamCast\Негативный позитивный рыбак\[DC] NegaPosi Angler - 02_Telegram_HEVC.mkv':
  Metadata:
    COMPATIBLE_BRANDS: isomiso2avc1mp41
    MAJOR_BRAND     : isom
    MINOR_VERSION   : 512
    ENCODER         : Lavf61.7.100
  Duration: 00:23:46.77, start: -0.021000, bitrate: 1100 kb/s
  Stream #0:0: Video: hevc (Main 10), yuv420p10le(tv, bt709, progressive), 1920x1080 [SAR 1:1 DAR 16:9], 23.98 fps, 23.98 tbr, 1k tbn (default)
      Metadata:
        HANDLER_NAME    : VideoHandler
        VENDOR_ID       : [0][0][0][0]
        ENCODER         : Lavc61.19.100 libx265
        BPS             : 903018
        DURATION        : 00:23:46.591708333
        NUMBER_OF_FRAMES: 34204
        NUMBER_OF_BYTES : 161029680
        _STATISTICS_WRITING_APP: mkvpropedit v66.0.0 ('Josie') 64-bit
        _STATISTICS_WRITING_DATE_UTC: 2025-05-31 12:32:47
        _STATISTICS_TAGS: BPS DURATION NUMBER_OF_FRAMES NUMBER_OF_BYTES
  Stream #0:1: Audio: aac (LC), 48000 Hz, stereo, fltp (default)
      Metadata:
        HANDLER_NAME    : SoundHandler
        VENDOR_ID       : [0][0][0][0]
        ENCODER         : Lavc61.19.100 aac
        BPS             : 193882
        DURATION        : 00:23:46.773000000
        NUMBER_OF_FRAMES: 66881
        NUMBER_OF_BYTES : 34578230
        _STATISTICS_WRITING_APP: mkvpropedit v66.0.0 ('Josie') 64-bit
        _STATISTICS_WRITING_DATE_UTC: 2025-05-31 12:32:47
        _STATISTICS_TAGS: BPS DURATION NUMBER_OF_FRAMES NUMBER_OF_BYTES
Input #1, mov,mp4,m4a,3gp,3g2,mj2, from 'G:\Аниме\Онгоинги\!_36_Осень_2024\DreamCast\Негативный позитивный рыбак\[DC] NegaPosi Angler - 02_Telegram.mp4':
  Metadata:
    major_brand     : isom
    minor_version   : 512
    compatible_brands: isomiso2avc1mp41
    encoder         : Lavf61.1.100
  Duration: 00:23:46.72, start: 0.000000, bitrate: 3853 kb/s
  Stream #1:0[0x1](und): Video: h264 (High) (avc1 / 0x31637661), yuv420p(tv, bt709, progressive), 1920x1080 [SAR 1:1 DAR 16:9], 3705 kb/s, 23.98 fps, 23.98 tbr, 24k tbn (default)
      Metadata:
        handler_name    : VideoHandler
        vendor_id       : [0][0][0][0]
        encoder         : Lavc61.3.100 h264_qsv
  Stream #1:1[0x2](und): Audio: aac (HE-AACv2) (mp4a / 0x6134706D), 48000 Hz, stereo, fltp, 144 kb/s (default)
      Metadata:
        handler_name    : SoundHandler
        vendor_id       : [0][0][0][0]
Stream mapping:
  Stream #0:0 (hevc) -> settb:default
  Stream #1:0 (h264) -> settb:default
  ssim:default -> Stream #0:0 (wrapped_avframe)
  Stream #0:1 -> #0:1 (aac (native) -> pcm_s16le (native))
Output #0, null, to 'pipe:':
  Metadata:
    COMPATIBLE_BRANDS: isomiso2avc1mp41
    MAJOR_BRAND     : isom
    MINOR_VERSION   : 512
    encoder         : Lavf61.7.100
  Stream #0:0: Video: wrapped_avframe, yuv420p10le(tv, bt709, progressive), 1920x1080 [SAR 1:1 DAR 16:9], q=2-31, 200 kb/s, 23.98 fps, 23.98 tbn
      Metadata:
        encoder         : Lavc61.19.100 wrapped_avframe
  Stream #0:1: Audio: pcm_s16le, 48000 Hz, stereo, s16, 1536 kb/s (default)
      Metadata:
        HANDLER_NAME    : SoundHandler
        VENDOR_ID       : [0][0][0][0]
        _STATISTICS_TAGS: BPS DURATION NUMBER_OF_FRAMES NUMBER_OF_BYTES
        BPS             : 193882
        DURATION        : 00:23:46.773000000
        NUMBER_OF_FRAMES: 66881
        NUMBER_OF_BYTES : 34578230
        _STATISTICS_WRITING_APP: mkvpropedit v66.0.0 ('Josie') 64-bit
        _STATISTICS_WRITING_DATE_UTC: 2025-05-31 12:32:47
        encoder         : Lavc61.19.100 pcm_s16le
frame=  169 fps=0.0 q=-0.0 size=N/A time=00:00:07.04 bitrate=N/A speed=13.9x    frame=  437 fps=424 q=-0.0 size=N/A time=00:00:18.22 bitrate=N/A speed=17.7x    frame=  676 fps=440 q=-0.0 size=N/A time=00:00:28.19 bitrate=N/A speed=18.3x    frame=  922 fps=447 q=-0.0 size=N/A time=00:00:38.45 bitrate=N/A speed=18.6x    frame= 1177 fps=458 q=-0.0 size=N/A time=00:00:49.09 bitrate=N/A speed=19.1x    frame= 1418 fps=458 q=-0.0 size=N/A time=00:00:59.14 bitrate=N/A speed=19.1x    frame= 1676 fps=465 q=-0.0 size=N/A time=00:01:09.90 bitrate=N/A speed=19.4x    frame= 1943 fps=470 q=-0.0 size=N/A time=00:01:21.03 bitrate=N/A speed=19.6x    frame= 2189 fps=472 q=-0.0 size=N/A time=00:01:31.29 bitrate=N/A speed=19.7x    frame= 2412 fps=468 q=-0.0 size=N/A time=00:01:40.60 bitrate=N/A speed=19.5x    frame= 2631 fps=464 q=-0.0 size=N/A time=00:01:49.73 bitrate=N/A speed=19.3x    frame= 2788 fps=451 q=-0.0 size=N/A time=00:01:56.28 bitrate=N/A speed=18.8x    frame= 2969 fps=443 q=-0.0 size=N/A time=00:02:03.83 bitrate=N/A speed=18.5x    frame= 3154 fps=437 q=-0.0 size=N/A time=00:02:11.54 bitrate=N/A speed=18.2x    frame= 3368 fps=435 q=-0.0 size=N/A time=00:02:20.47 bitrate=N/A speed=18.2x    frame= 3551 fps=431 q=-0.0 size=N/A time=00:02:28.10 bitrate=N/A speed=  18x    frame= 3741 fps=427 q=-0.0 size=N/A time=00:02:36.03 bitrate=N/A speed=17.8x    frame= 3944 fps=425 q=-0.0 size=N/A time=00:02:44.49 bitrate=N/A speed=17.7x    frame= 4145 fps=423 q=-0.0 size=N/A time=00:02:52.88 bitrate=N/A speed=17.7x    frame= 4348 fps=422 q=-0.0 size=N/A time=00:03:01.34 bitrate=N/A speed=17.6x    frame= 4568 fps=422 q=-0.0 size=N/A time=00:03:10.52 bitrate=N/A speed=17.6x    frame= 4811 fps=424 q=-0.0 size=N/A time=00:03:20.65 bitrate=N/A speed=17.7x    frame= 5065 fps=427 q=-0.0 size=N/A time=00:03:31.25 bitrate=N/A speed=17.8x    frame= 5334 fps=431 q=-0.0 size=N/A time=00:03:42.47 bitrate=N/A speed=  18x    frame= 5574 fps=433 q=-0.0 size=N/A time=00:03:52.48 bitrate=N/A speed=  18x    frame= 5837 fps=435 q=-0.0 size=N/A time=00:04:03.45 bitrate=N/A speed=18.2x    frame= 6089 fps=437 q=-0.0 size=N/A time=00:04:13.96 bitrate=N/A speed=18.2x    frame= 6344 fps=440 q=-0.0 size=N/A time=00:04:24.59 bitrate=N/A speed=18.3x    frame= 6589 fps=441 q=-0.0 size=N/A time=00:04:34.81 bitrate=N/A speed=18.4x    frame= 6835 fps=442 q=-0.0 size=N/A time=00:04:45.07 bitrate=N/A speed=18.4x    frame= 7098 fps=444 q=-0.0 size=N/A time=00:04:56.04 bitrate=N/A speed=18.5x    frame= 7359 fps=446 q=-0.0 size=N/A time=00:05:06.93 bitrate=N/A speed=18.6x    frame= 7609 fps=447 q=-0.0 size=N/A time=00:05:17.35 bitrate=N/A speed=18.6x    frame= 7851 fps=448 q=-0.0 size=N/A time=00:05:27.45 bitrate=N/A speed=18.7x    frame= 8114 fps=450 q=-0.0 size=N/A time=00:05:38.42 bitrate=N/A speed=18.8x    frame= 8367 fps=451 q=-0.0 size=N/A time=00:05:48.97 bitrate=N/A speed=18.8x    frame= 8637 fps=453 q=-0.0 size=N/A time=00:06:00.23 bitrate=N/A speed=18.9x    frame= 8890 fps=454 q=-0.0 size=N/A time=00:06:10.78 bitrate=N/A speed=18.9x    frame= 9142 fps=455 q=-0.0 size=N/A time=00:06:21.29 bitrate=N/A speed=  19x    frame= 9389 fps=455 q=-0.0 size=N/A time=00:06:31.59 bitrate=N/A speed=  19x    frame= 9651 fps=456 q=-0.0 size=N/A time=00:06:42.52 bitrate=N/A speed=  19x    frame= 9901 fps=457 q=-0.0 size=N/A time=00:06:52.95 bitrate=N/A speed=19.1x    frame=10151 fps=458 q=-0.0 size=N/A time=00:07:03.38 bitrate=N/A speed=19.1x    frame=10413 fps=459 q=-0.0 size=N/A time=00:07:14.30 bitrate=N/A speed=19.1x    frame=10665 fps=460 q=-0.0 size=N/A time=00:07:24.81 bitrate=N/A speed=19.2x    frame=10919 fps=460 q=-0.0 size=N/A time=00:07:35.41 bitrate=N/A speed=19.2x    frame=11153 fps=460 q=-0.0 size=N/A time=00:07:45.17 bitrate=N/A speed=19.2x    frame=11408 fps=461 q=-0.0 size=N/A time=00:07:55.80 bitrate=N/A speed=19.2x    frame=11653 fps=461 q=-0.0 size=N/A time=00:08:06.02 bitrate=N/A speed=19.2x    frame=11907 fps=462 q=-0.0 size=N/A time=00:08:16.62 bitrate=N/A speed=19.3x    frame=12138 fps=462 q=-0.0 size=N/A time=00:08:26.25 bitrate=N/A speed=19.3x    frame=12385 fps=462 q=-0.0 size=N/A time=00:08:36.55 bitrate=N/A speed=19.3x    frame=12659 fps=463 q=-0.0 size=N/A time=00:08:47.98 bitrate=N/A speed=19.3x    frame=12921 fps=464 q=-0.0 size=N/A time=00:08:58.91 bitrate=N/A speed=19.4x    frame=13157 fps=464 q=-0.0 size=N/A time=00:09:08.79 bitrate=N/A speed=19.4x    frame=13402 fps=464 q=-0.0 size=N/A time=00:09:18.97 bitrate=N/A speed=19.4x    frame=13609 fps=463 q=-0.0 size=N/A time=00:09:27.60 bitrate=N/A speed=19.3x    frame=13863 fps=464 q=-0.0 size=N/A time=00:09:38.20 bitrate=N/A speed=19.3x    frame=14101 fps=464 q=-0.0 size=N/A time=00:09:48.12 bitrate=N/A speed=19.3x    frame=14345 fps=464 q=-0.0 size=N/A time=00:09:58.30 bitrate=N/A speed=19.3x    frame=14582 fps=464 q=-0.0 size=N/A time=00:10:08.19 bitrate=N/A speed=19.3x    frame=14822 fps=464 q=-0.0 size=N/A time=00:10:18.20 bitrate=N/A speed=19.3x    frame=15028 fps=463 q=-0.0 size=N/A time=00:10:26.79 bitrate=N/A speed=19.3x    frame=15263 fps=463 q=-0.0 size=N/A time=00:10:36.59 bitrate=N/A speed=19.3x    frame=15530 fps=463 q=-0.0 size=N/A time=00:10:47.73 bitrate=N/A speed=19.3x    frame=15778 fps=464 q=-0.0 size=N/A time=00:10:58.07 bitrate=N/A speed=19.3x    frame=15975 fps=463 q=-0.0 size=N/A time=00:11:06.29 bitrate=N/A speed=19.3x    frame=16220 fps=463 q=-0.0 size=N/A time=00:11:16.50 bitrate=N/A speed=19.3x    frame=16442 fps=462 q=-0.0 size=N/A time=00:11:25.76 bitrate=N/A speed=19.3x    frame=16695 fps=463 q=-0.0 size=N/A time=00:11:36.32 bitrate=N/A speed=19.3x    frame=16946 fps=463 q=-0.0 size=N/A time=00:11:46.78 bitrate=N/A speed=19.3x    frame=17175 fps=463 q=-0.0 size=N/A time=00:11:56.34 bitrate=N/A speed=19.3x    frame=17417 fps=463 q=-0.0 size=N/A time=00:12:06.43 bitrate=N/A speed=19.3x    frame=17663 fps=463 q=-0.0 size=N/A time=00:12:16.69 bitrate=N/A speed=19.3x    frame=17925 fps=463 q=-0.0 size=N/A time=00:12:27.62 bitrate=N/A speed=19.3x    frame=18154 fps=463 q=-0.0 size=N/A time=00:12:37.17 bitrate=N/A speed=19.3x    frame=18401 fps=463 q=-0.0 size=N/A time=00:12:47.47 bitrate=N/A speed=19.3x    frame=18650 fps=464 q=-0.0 size=N/A time=00:12:57.86 bitrate=N/A speed=19.3x    frame=18886 fps=463 q=-0.0 size=N/A time=00:13:07.70 bitrate=N/A speed=19.3x    frame=19148 fps=464 q=-0.0 size=N/A time=00:13:18.63 bitrate=N/A speed=19.4x    frame=19405 fps=464 q=-0.0 size=N/A time=00:13:29.35 bitrate=N/A speed=19.4x    frame=19648 fps=465 q=-0.0 size=N/A time=00:13:39.48 bitrate=N/A speed=19.4x    frame=19885 fps=465 q=-0.0 size=N/A time=00:13:49.37 bitrate=N/A speed=19.4x    frame=20128 fps=465 q=-0.0 size=N/A time=00:13:59.50 bitrate=N/A speed=19.4x    frame=20376 fps=465 q=-0.0 size=N/A time=00:14:09.84 bitrate=N/A speed=19.4x    frame=20595 fps=464 q=-0.0 size=N/A time=00:14:18.98 bitrate=N/A speed=19.4x    frame=20846 fps=464 q=-0.0 size=N/A time=00:14:29.45 bitrate=N/A speed=19.4x    frame=21064 fps=464 q=-0.0 size=N/A time=00:14:38.54 bitrate=N/A speed=19.4x    frame=21318 fps=464 q=-0.0 size=N/A time=00:14:49.13 bitrate=N/A speed=19.4x    frame=21567 fps=465 q=-0.0 size=N/A time=00:14:59.52 bitrate=N/A speed=19.4x    frame=21802 fps=464 q=-0.0 size=N/A time=00:15:09.32 bitrate=N/A speed=19.4x    frame=22039 fps=464 q=-0.0 size=N/A time=00:15:19.20 bitrate=N/A speed=19.4x    frame=22254 fps=464 q=-0.0 size=N/A time=00:15:28.17 bitrate=N/A speed=19.3x    frame=22471 fps=463 q=-0.0 size=N/A time=00:15:37.22 bitrate=N/A speed=19.3x    frame=22726 fps=464 q=-0.0 size=N/A time=00:15:47.86 bitrate=N/A speed=19.3x    frame=22925 fps=463 q=-0.0 size=N/A time=00:15:56.16 bitrate=N/A speed=19.3x    frame=23173 fps=463 q=-0.0 size=N/A time=00:16:06.50 bitrate=N/A speed=19.3x    frame=23419 fps=463 q=-0.0 size=N/A time=00:16:16.76 bitrate=N/A speed=19.3x    frame=23646 fps=463 q=-0.0 size=N/A time=00:16:26.23 bitrate=N/A speed=19.3x    frame=23887 fps=463 q=-0.0 size=N/A time=00:16:36.24 bitrate=N/A speed=19.3x    frame=24107 fps=463 q=-0.0 size=N/A time=00:16:45.46 bitrate=N/A speed=19.3x    frame=24330 fps=462 q=-0.0 size=N/A time=00:16:54.76 bitrate=N/A speed=19.3x    frame=24576 fps=462 q=-0.0 size=N/A time=00:17:05.02 bitrate=N/A speed=19.3x    frame=24819 fps=462 q=-0.0 size=N/A time=00:17:15.15 bitrate=N/A speed=19.3x    frame=25055 fps=462 q=-0.0 size=N/A time=00:17:25.00 bitrate=N/A speed=19.3x    frame=25270 fps=462 q=-0.0 size=N/A time=00:17:33.96 bitrate=N/A speed=19.3x    frame=25510 fps=462 q=-0.0 size=N/A time=00:17:43.97 bitrate=N/A speed=19.3x    frame=25759 fps=462 q=-0.0 size=N/A time=00:17:54.36 bitrate=N/A speed=19.3x    frame=25989 fps=462 q=-0.0 size=N/A time=00:18:03.95 bitrate=N/A speed=19.3x    frame=26204 fps=462 q=-0.0 size=N/A time=00:18:12.92 bitrate=N/A speed=19.3x    frame=26452 fps=462 q=-0.0 size=N/A time=00:18:23.26 bitrate=N/A speed=19.3x    frame=26699 fps=462 q=-0.0 size=N/A time=00:18:33.57 bitrate=N/A speed=19.3x    frame=26918 fps=462 q=-0.0 size=N/A time=00:18:42.70 bitrate=N/A speed=19.3x    frame=27154 fps=462 q=-0.0 size=N/A time=00:18:52.54 bitrate=N/A speed=19.3x    frame=27376 fps=461 q=-0.0 size=N/A time=00:19:01.80 bitrate=N/A speed=19.2x    frame=27599 fps=461 q=-0.0 size=N/A time=00:19:11.10 bitrate=N/A speed=19.2x    frame=27854 fps=461 q=-0.0 size=N/A time=00:19:21.74 bitrate=N/A speed=19.2x    frame=28103 fps=462 q=-0.0 size=N/A time=00:19:32.12 bitrate=N/A speed=19.3x    frame=28356 fps=462 q=-0.0 size=N/A time=00:19:42.68 bitrate=N/A speed=19.3x    frame=28618 fps=462 q=-0.0 size=N/A time=00:19:53.60 bitrate=N/A speed=19.3x    frame=28873 fps=462 q=-0.0 size=N/A time=00:20:04.24 bitrate=N/A speed=19.3x    frame=29104 fps=462 q=-0.0 size=N/A time=00:20:13.87 bitrate=N/A speed=19.3x    frame=29342 fps=462 q=-0.0 size=N/A time=00:20:23.80 bitrate=N/A speed=19.3x    frame=29579 fps=462 q=-0.0 size=N/A time=00:20:33.69 bitrate=N/A speed=19.3x    frame=29829 fps=463 q=-0.0 size=N/A time=00:20:44.11 bitrate=N/A speed=19.3x    frame=30090 fps=463 q=-0.0 size=N/A time=00:20:55.00 bitrate=N/A speed=19.3x    frame=30352 fps=463 q=-0.0 size=N/A time=00:21:05.93 bitrate=N/A speed=19.3x    frame=30600 fps=463 q=-0.0 size=N/A time=00:21:16.27 bitrate=N/A speed=19.3x    frame=30857 fps=464 q=-0.0 size=N/A time=00:21:26.99 bitrate=N/A speed=19.3x    frame=31109 fps=464 q=-0.0 size=N/A time=00:21:37.50 bitrate=N/A speed=19.3x    frame=31344 fps=464 q=-0.0 size=N/A time=00:21:47.30 bitrate=N/A speed=19.3x    frame=31593 fps=464 q=-0.0 size=N/A time=00:21:57.69 bitrate=N/A speed=19.3x    frame=31847 fps=464 q=-0.0 size=N/A time=00:22:08.28 bitrate=N/A speed=19.4x    frame=32053 fps=464 q=-0.0 size=N/A time=00:22:16.87 bitrate=N/A speed=19.3x    frame=32307 fps=464 q=-0.0 size=N/A time=00:22:27.47 bitrate=N/A speed=19.3x    frame=32534 fps=464 q=-0.0 size=N/A time=00:22:36.93 bitrate=N/A speed=19.3x    frame=32767 fps=464 q=-0.0 size=N/A time=00:22:46.65 bitrate=N/A speed=19.3x    frame=32994 fps=463 q=-0.0 size=N/A time=00:22:56.12 bitrate=N/A speed=19.3x    frame=33227 fps=463 q=-0.0 size=N/A time=00:23:05.84 bitrate=N/A speed=19.3x    frame=33457 fps=463 q=-0.0 size=N/A time=00:23:15.43 bitrate=N/A speed=19.3x    frame=33694 fps=463 q=-0.0 size=N/A time=00:23:25.32 bitrate=N/A speed=19.3x    frame=33921 fps=463 q=-0.0 size=N/A time=00:23:34.78 bitrate=N/A speed=19.3x    frame=34179 fps=463 q=-0.0 size=N/A time=00:23:45.54 bitrate=N/A speed=19.3x    [Parsed_ssim_10 @ 00000229ea951a80] SSIM Y:0.994335 (22.467902) U:0.993245 (21.703962) V:0.993363 (21.780518) All:0.993991 (22.212241)
[out#0/null @ 00000229ea904c00] video:14697KiB audio:267524KiB subtitle:0KiB other streams:0KiB global headers:0KiB muxing overhead: unknown
frame=34204 fps=463 q=-0.0 Lsize=N/A time=00:23:46.59 bitrate=N/A speed=19.3x    
